<?xml version="1.0" encoding="UTF-8" standalone="no"?>
<!-- Created with Inkscape (http://www.inkscape.org/) -->

<svg
   width="210mm"
   height="297mm"
   viewBox="0 0 210 297"
   version="1.1"
   id="svg1"
   xml:space="preserve"
   inkscape:version="1.3 (0e150ed6c4, 2023-07-21)"
   sodipodi:docname="elektron_logo.svg"
   inkscape:export-filename="elektron_logo_ahsemnyc.png"
   inkscape:export-xdpi="300"
   inkscape:export-ydpi="300"
   xmlns:inkscape="http://www.inkscape.org/namespaces/inkscape"
   xmlns:sodipodi="http://sodipodi.sourceforge.net/DTD/sodipodi-0.dtd"
   xmlns="http://www.w3.org/2000/svg"
   xmlns:svg="http://www.w3.org/2000/svg"><sodipodi:namedview
     id="namedview1"
     pagecolor="#ffffff"
     bordercolor="#000000"
     borderopacity="0.25"
     inkscape:showpageshadow="2"
     inkscape:pageopacity="0.0"
     inkscape:pagecheckerboard="0"
     inkscape:deskcolor="#d1d1d1"
     inkscape:document-units="mm"
     inkscape:zoom="0.25858552"
     inkscape:cx="162.42209"
     inkscape:cy="377.05127"
     inkscape:window-width="1920"
     inkscape:window-height="1017"
     inkscape:window-x="-8"
     inkscape:window-y="-8"
     inkscape:window-maximized="1"
     inkscape:current-layer="layer1" /><defs
     id="defs1" /><g
     inkscape:label="Layer 1"
     inkscape:groupmode="layer"
     id="layer1"><path
       style="fill:#1f2937;fill-opacity:1"
       d="M 85.005046,196.56442 C 74.666641,184.95913 61.869391,170.59441 56.566721,164.64281 l -9.64122,-10.82109 -0.13229,4.89977 -0.13229,4.89977 -11.1858,-41.80677 c -6.15219,-22.993727 -11.15281,-41.837925 -11.1125,-41.876005 0.0403,-0.0381 9.9041,16.974718 21.91952,37.806215 l 21.84623,37.87545 1.83398,6.9437 c 2.06606,7.82236 2.23086,8.12049 2.23086,4.03574 v -2.91118 l 0.88946,0.99295 c 0.4892,0.54613 7.58772,12.60155 15.774495,26.78983 8.18679,14.18828 14.937314,25.88617 15.001174,25.99531 0.39265,0.67106 -1.85619,-1.82216 -18.853294,-20.90208 z m 21.137914,20.96823 c 0.78373,-1.73607 30.12764,-52.1245 30.77817,-52.85129 l 0.88875,-0.99295 v 2.6466 c 0,3.76782 0.18627,3.42838 2.17073,-3.9558 l 1.77386,-6.6005 21.90635,-37.9536 c 12.0485,-20.874477 21.93796,-37.924335 21.97658,-37.888565 0.0386,0.0358 -4.96199,18.684948 -11.1125,41.442625 l -11.18272,41.37759 -0.1323,-4.46348 -0.13229,-4.46347 -27.64896,31.03138 c -29.57981,33.19845 -29.46651,33.07205 -29.28567,32.67146 z m 15.53755,-67.46875 c 0.63009,-1.16417 1.96821,-3.60495 2.97359,-5.42396 1.00539,-1.81901 1.87318,-3.53433 1.92843,-3.81182 0.0553,-0.27748 1.838,-3.65295 3.96166,-7.50103 4.49382,-8.14281 4.49073,-8.11909 0.59254,-4.545 -1.64128,1.50482 -3.27575,2.97977 -3.63217,3.27767 l -0.64804,0.54164 0.40988,-0.66146 c 0.22543,-0.3638 1.92388,-3.08447 3.77433,-6.04593 1.85045,-2.96146 3.30772,-5.4412 3.23839,-5.51053 -0.0693,-0.0693 -6.53124,4.99893 -14.35979,11.26281 l -14.23373,11.38888 -0.40817,-0.35008 c -2.44585,-2.09781 -28.321719,-22.60178 -28.321719,-22.44206 0,0.11803 2.15298,3.66132 4.784395,7.87398 l 4.78441,7.65939 -0.8818,-0.81257 c -5.799435,-5.3441 -9.796175,-8.88208 -9.907755,-8.7705 -0.0755,0.0755 1.60028,3.28569 3.72394,7.13376 2.123665,3.84808 3.906405,7.22355 3.961655,7.50103 0.0881,0.44254 0.98751,2.13047 4.8154,9.03734 0.50407,0.9095 0.86012,1.65364 0.79124,1.65364 -0.48438,0 -12.358275,-20.58199 -22.132805,-38.36458 -6.43905,-11.71443 -12.01369,-21.834735 -12.38808,-22.489575 l -0.68071,-1.19063 0.50231,0.39688 c 0.27627,0.21828 4.66953,4.17453 9.7628,8.791658 5.09327,4.617137 9.30533,8.349947 9.36014,8.295147 0.0818,-0.0818 -4.74947,-7.889737 -15.86933,-25.646945 -0.71565,-1.14281 -1.14383,-1.98184 -0.95151,-1.86452 0.19231,0.11732 11.35972,9.02953 24.816455,19.804918 13.45676,10.775387 24.551174,19.628577 24.654284,19.673757 0.1031,0.0452 11.23866,-8.75309 24.74569,-19.551707 13.50703,-10.798628 24.72259,-19.762988 24.92347,-19.920788 0.43074,-0.33838 0.0906,0.22183 -7.74823,12.76045 -3.30711,5.289898 -5.97012,9.660815 -5.9178,9.713135 0.0523,0.0523 3.11612,-2.643977 6.80844,-5.991777 7.68768,-6.970348 7.48117,-6.805568 6.58255,-5.252278 -0.37334,0.64533 -5.94711,10.757845 -12.38617,22.472275 -6.43905,11.71443 -14.03437,25.16849 -16.87849,29.89792 -5.23814,8.71041 -6.63099,10.85689 -4.5497,7.01146 z"
       id="path1" /></g></svg>
